<?xml version="1.0" encoding="UTF-8" standalone="no"?>
<!-- Created with Inkscape (http://www.inkscape.org/) -->

<svg
   xmlns:dc="http://purl.org/dc/elements/1.1/"
   xmlns:cc="http://creativecommons.org/ns#"
   xmlns:rdf="http://www.w3.org/1999/02/22-rdf-syntax-ns#"
   xmlns:svg="http://www.w3.org/2000/svg"
   xmlns="http://www.w3.org/2000/svg"
   xmlns:sodipodi="http://sodipodi.sourceforge.net/DTD/sodipodi-0.dtd"
   xmlns:inkscape="http://www.inkscape.org/namespaces/inkscape"
   width="38.077641mm"
   height="38.077641mm"
   viewBox="0 0 134.92077 134.92077"
   id="svg2"
   version="1.1"
   inkscape:version="0.91 r13725"
   sodipodi:docname="RepTate_logo.svg"
   inkscape:export-filename="/Users/mmvahb/Documents/vahb/Repate/RepTate/RepTate/gui/Images/RepTate_logo_new.icns"
   inkscape:export-xdpi="683.07001"
   inkscape:export-ydpi="683.07001"
   enable-background="new">
  <sodipodi:namedview
     id="base"
     pagecolor="#ffffff"
     bordercolor="#666666"
     borderopacity="1.0"
     inkscape:pageopacity="0.0"
     inkscape:pageshadow="2"
     inkscape:zoom="1.0263363"
     inkscape:cx="-60.066534"
     inkscape:cy="32.603725"
     inkscape:document-units="px"
     inkscape:current-layer="layer1"
     showgrid="false"
     inkscape:window-width="1280"
     inkscape:window-height="726"
     inkscape:window-x="0"
     inkscape:window-y="1"
     inkscape:window-maximized="1"
     fit-margin-top="0"
     fit-margin-left="0"
     fit-margin-right="0"
     fit-margin-bottom="0" />
  <defs
     id="defs4" />
  <metadata
     id="metadata7">
    <rdf:RDF>
      <cc:Work
         rdf:about="">
        <dc:format>image/svg+xml</dc:format>
        <dc:type
           rdf:resource="http://purl.org/dc/dcmitype/StillImage" />
        <dc:title></dc:title>
      </cc:Work>
    </rdf:RDF>
  </metadata>
  <g
     inkscape:label="Layer 1"
     inkscape:groupmode="layer"
     id="layer1"
     transform="translate(-363.20221,-425.90823)"
     style="display:inline;">
    <path
       style="fill:none;fill-rule:evenodd;stroke:#007f00;stroke-width:4.44129848;stroke-linecap:round;stroke-linejoin:miter;stroke-miterlimit:4;stroke-dasharray:none;stroke-opacity:1"
       d="m 388.72065,505.92408 c -0.1629,-1.82046 10.87195,-3.07845 12.06886,-4.78783 1.16531,-2.17676 9.33055,-2.00495 11.06945,-2.78255 1.75606,-0.28516 4.88134,-1.96146 7.41643,-2.23366 2.72352,-1.10587 4.82689,-3.1581 6.87597,-5.07762 2.05282,-1.78651 4.81647,-2.87327 6.8974,-4.62833 2.45465,-2.14531 4.00348,-4.82755 4.67728,-7.80704 0.76042,-2.99198 5.47538,-1.7866 6.83742,-4.54806 1.748,-2.58668 1.17799,-5.97142 3.979,-8.08812 1.69852,-1.32026 2.35987,-4.7973 2.51473,-5.32571 0.60875,-2.85728 0.93612,-5.42796 2.60393,-7.9419 -0.014,-0.65191 3.82361,-2.50208 3.36919,-3.23863"
       id="path4340"
       inkscape:connector-curvature="0"
       sodipodi:nodetypes="cccccccccccc" />
    <path
       style="fill:none;fill-rule:evenodd;stroke:#007f00;stroke-width:4.44129848;stroke-linecap:round;stroke-linejoin:miter;stroke-miterlimit:4;stroke-dasharray:none;stroke-opacity:1"
       d="m 495.84768,456.48455 c -1.00074,2.65763 -1.4365,5.5464 -1.45659,9.71064 -0.005,1.02031 0.61141,2.4547 0.60148,3.52754 -0.0402,4.34357 -0.97271,8.38455 -3.5424,9.87576 -5.25098,3.04718 -3.29245,6.35656 -3.48478,7.61284 -0.17299,4.74674 -2.50653,6.3175 -4.55366,8.08302 -2.62376,2.26281 -1.47543,5.34026 -1.89947,7.52493 -0.78755,6.62615 -5.14989,11.20097 -17.20463,17.25892 -3.795,2.2894 -6.99187,2.97269 -10.83949,3.84256 -3.95,0.89302 -2.40127,3.29175 -5.99618,5.42851 -5.99081,3.56085 -12.28699,5.92741 -16.23669,10.47691 -3.94969,4.5495 -5.35883,3.36887 -9.61092,5.41509 -5.26358,2.53298 -11.09723,6.46532 -13.17114,6.73121"
       id="path4342"
       inkscape:connector-curvature="0"
       sodipodi:nodetypes="cssscsccsszsc" />
    <path
       style="fill:none;fill-rule:evenodd;stroke:#d90000;stroke-width:6.23896742;stroke-linecap:round;stroke-linejoin:bevel;stroke-miterlimit:4;stroke-dasharray:none;stroke-opacity:1"
       d="m 465.1913,439.78988 c -1.21226,-0.38562 -6.08074,-0.92942 -8.05539,-1.65592 -2.09916,-0.77231 -2.28987,-2.51498 -4.83756,-3.32816 -2.9578,-0.94408 -5.89685,-3.7177 -8.63791,-4.03525 -3.45912,0.40954 -9.19444,1.24589 -10.76419,4.28821"
       id="path4344"
       inkscape:connector-curvature="0"
       sodipodi:nodetypes="csscc" />
    <path
       style="fill:none;fill-opacity:1;fill-rule:evenodd;stroke:#007f00;stroke-width:4.44099998;stroke-linecap:round;stroke-linejoin:miter;stroke-miterlimit:4;stroke-dasharray:none;stroke-opacity:1"
       d="m 486.79828,473.85425 c 0.93308,-2.18364 4.72647,-4.54548 4.99768,-8.16159 0.26933,-3.59102 3.94419,-6.57637 3.9566,-8.98726 -0.007,-2.6383 -0.26658,-4.70873 -0.30169,-6.35006 -0.19296,-9.02153 -0.70989,-5.07917 -3.55578,-11.21398 -1.80132,-5.04189 -7.53205,-8.13006 -13.18002,-8.95243 -5.08788,-1.62885 -11.74915,-1.27637 -15.18469,2.87807 -1.6022,1.63643 -4.64509,2.58032 -4.45463,5.33514 -0.46509,3.26454 1.21285,6.85861 -0.9325,9.83399 -2.40464,1.57746 -1.1865,5.07089 -0.29511,7.79357 0.38321,2.65007 -0.34289,4.08083 -0.96988,6.8224 -0.0698,0.3087 0.27288,2.91647 1.61066,4.44696 1.13254,1.29567 3.18532,1.43971 4.16368,2.68872 1.25716,1.60493 1.64879,1.45529 2.78918,2.46253 2.82186,2.4924 2.97917,1.74102 4.25966,2.53947 6.67598,3.24607 12.50206,5.18292 17.09684,-1.13553 z"
       id="path4356"
       inkscape:connector-curvature="0"
       sodipodi:nodetypes="cscscccccccssscc" />
    <path
       style="fill:none;fill-rule:evenodd;stroke:#d90000;stroke-width:6.23896742;stroke-linecap:round;stroke-linejoin:bevel;stroke-miterlimit:4;stroke-dasharray:none;stroke-opacity:1"
       d="m 412.66524,533.49665 c 2.93753,0.23907 10.16091,-1.17143 13.69527,-5.06598 2.37346,-2.61533 1.85394,-7.67481 1.86081,-9.14791 0.007,-5.44187 -0.9781,-11.14261 -0.6666,-16.28653 3.82886,-6.15098 15.54809,-2.4237 17.07059,3.2394 4.39504,5.29334 11.09863,0.28296 15.28984,-1.22369 0,0 8.43248,-4.06697 8.60499,-7.33415 1.37645,-5.31038 -0.5047,-10.46831 -4.63408,-13.64794 -0.53443,-4.95864 -3.41017,-11.86929 3.03835,-14.54664 4.9571,-4.81957 15.22661,-2.21443 14.99361,-11.46202 1.39652,-7.19366 -4.88586,-9.33537 -9.05456,-14.34144 -1.72129,-2.33612 -5.50502,-3.14352 -8.22963,-4.10161"
       id="path4165"
       inkscape:connector-curvature="0"
       sodipodi:nodetypes="cscccccccccc" />
    <path
       style="fill:none;fill-rule:evenodd;stroke:#007f00;stroke-width:4.44129848;stroke-linecap:round;stroke-linejoin:miter;stroke-miterlimit:4;stroke-dasharray:none;stroke-opacity:1"
       d="m 400.73365,555.68069 c 3.12239,-0.5742 6.66153,-1.60113 7.8251,-4.54571 0.12129,-2.80486 2.78369,-4.3631 4.76257,-6.18513 2.15835,-2.92261 4.41729,-6.10611 4.19482,-9.74542 -0.1505,-2.41688 0.2004,-4.8562 -0.16766,-7.25289 -0.23816,-2.72337 -4.2764,-3.17803 -3.25007,-6.13469 0.12891,-2.77836 0.61597,-5.84968 -1.34654,-8.25849 -1.58497,-3.11505 -4.17623,-6.69805 -8.45978,-6.86092 -3.42989,0.5059 -6.59765,-0.16414 -9.63166,-1.39482 -3.2195,-0.5991 -6.99482,0.33506 -8.62843,3.03188 -2.24293,2.02478 -4.40066,4.1168 -5.91302,6.63237 -1.54844,1.94094 -3.88252,3.65575 -4.24714,6.12886 0.33844,2.37899 -2.0085,4.64461 -2.26917,7.15881 -1.03659,3.80732 -0.56033,11.8514 2.31611,15.28669 0.082,0.0979 2.38086,2.3155 4.85431,4.6946 0.92648,0.89113 1.31526,2.21708 2.10593,2.96069 1.677,1.57719 3.45753,2.23908 4.03571,2.55156 4.11101,2.09622 10.28058,2.61721 13.81892,1.93261 z"
       id="path4352"
       inkscape:connector-curvature="0"
       sodipodi:nodetypes="cccccccccccccssscc" />
    <path
       style="fill:#cdffb4;fill-opacity:0.89595377;fill-rule:evenodd;stroke:none;stroke-width:1px;stroke-linecap:butt;stroke-linejoin:miter;stroke-opacity:1"
       d="m 453.06524,467.4758 c 1.19666,0.50203 7.08586,5.55046 4.07595,10.78787 0.21081,2.42874 -0.0397,2.82059 0.77599,5.24872 0.25342,1.17467 0.53432,3.03586 1.26269,3.89208 1.67696,1.72953 3.44815,5.36289 3.02741,7.46945 -0.84754,1.8219 -5.06261,4.46949 -7.20675,5.39239 0,0 -3.44006,1.16503 -4.82203,0.47709 -1.98236,-1.07407 -5.45884,-3.25801 -6.98963,-4.74324 -2.89171,-1.34175 -5.31065,-4.28809 -8.03075,-2.43175 -7.18858,2.32536 -5.11144,-1.17433 -0.77086,-2.95011 0.98919,-1.16073 2.39665,-1.94762 3.49519,-3.00329 1.959,-1.42664 2.70254,-1.56283 4.3895,-3.32881 0.71405,-0.80649 0.77004,-2.27721 0.40249,-3.21298 -0.31703,-1.65195 3.75552,-2.00775 4.95402,-2.91511 1.32512,-0.75706 1.29303,-2.15263 1.61348,-3.33238 0.56896,-1.12334 0.42429,-2.53051 0.49101,-3.86553 1.63386,-2.26795 2.63721,-4.36318 3.33229,-3.4844 z"
       id="path4593"
       inkscape:connector-curvature="0"
       sodipodi:nodetypes="ccccccccccccccccc" />
    <path
       style="fill:#cdffb4;fill-opacity:0.89595379;fill-rule:evenodd;stroke:none;stroke-width:1px;stroke-linecap:butt;stroke-linejoin:miter;stroke-opacity:1"
       d="m 433.98728,506.14285 c 0.44345,-2.16244 2.51016,-1.41282 4.50246,1.17154 2.46202,3.19368 5.17356,8.5991 8.90913,7.71847 6.15888,0.26758 11.13616,-3.26136 16.68331,-4.87951 3.77481,-3.18802 10.35215,-5.19161 10.55286,-10.41035 0.92344,-5.21768 -0.73336,-12.88619 -5.15672,-17.32555 0.67659,-2.98734 2.5543,-1.16644 5.51084,-0.0935 2.33637,0.84784 4.85927,1.71573 8.48268,-1.11262 1.04883,2.48036 0.86239,5.82518 -0.21094,8.04873 -0.43479,0.90074 -1.44421,1.23213 -1.64144,1.5767 -1.95833,3.42142 -4.09827,4.69942 -3.93671,7.13955 -1.10284,2.83641 -0.44648,5.84064 -2.32706,8.3383 -1.50156,1.99427 -3.89344,3.53247 -5.55971,5.37961 -7.89086,6.73662 -20.04272,6.90985 -28.03935,13.47414 -3.88329,5.64371 -22.28526,19.34192 -21.13968,15.38741 1.09732,-3.78788 6.63217,-5.31246 9.02356,-7.06421 5.36745,-3.93181 4.55632,-12.37981 4.35413,-13.62279 0.12562,-4.4867 -1.51583,-9.52131 -0.008,-13.72587 z"
       id="path4595"
       inkscape:connector-curvature="0"
       sodipodi:nodetypes="csccccscsscsccssccc" />
    <path
       style="fill:#cdffb4;fill-opacity:0.89595379;fill-rule:evenodd;stroke:none;stroke-width:1px;stroke-linecap:butt;stroke-linejoin:miter;stroke-opacity:1"
       d="m 407.61893,503.1066 c 0.50879,1.60324 5.37855,2.2101 6.39338,4.67033 0.12489,1.09023 1.18884,1.66646 1.65931,2.76077 0.64517,1.50064 0.82099,3.4905 1.83226,4.68835 0.5921,4.82352 0.55565,9.90337 3.44754,10.08946 3.9906,0.57639 3.06134,-8.2084 1.50583,-12.4719 -0.80266,-2.84179 0,0 -0.30917,-8.66993 0.87735,-1.41834 1.64102,-4.84743 2.27836,-5.08893 2.48689,-1.44517 0.8649,-1.80748 -0.76784,-1.1532 -0.84504,0.33863 -2.07483,0.93085 -3.1593,1.38833 -2.4686,1.04138 -5.14562,4.00307 -6.86832,2.78844 -1.84859,0.2462 -6.91247,0.11288 -6.01205,0.99828 z"
       id="path4597"
       inkscape:connector-curvature="0"
       sodipodi:nodetypes="ccscccccsscc" />
    <path
       style="fill:#cdffb4;fill-opacity:0.89595379;fill-rule:evenodd;stroke:none;stroke-width:1px;stroke-linecap:butt;stroke-linejoin:miter;stroke-opacity:1"
       d="m 380.63543,541.852 c -1.82265,-0.4785 -5.73472,-6.83482 -1.87665,-12.98639 -0.56354,-2.89073 1.71917,-3.96459 1.78129,-6.78105 0.30685,-1.69773 1.21828,-2.99554 2.15988,-4.35659 1.42051,-0.9192 3.49224,-1.5533 3.58646,-3.2903 0.78168,-1.76191 2.52315,-3.64639 4.73575,-3.78963 1.91754,-0.28021 4.38515,-1.17159 5.89205,-0.10137 1.96949,0.87475 6.73146,0.33836 8.46457,1.50745 2.25097,1.87928 3.78374,4.68906 4.46521,7.37144 0.18269,0.43816 -1.19298,4.81346 -0.45347,5.90081 1.30557,1.91966 3.81589,3.53616 2.11992,3.76132 -1.50175,-0.73098 -2.43767,0.5638 -4.30504,-0.4315 -1.69341,-0.90259 -2.8966,-3.14528 -4.34742,-4.46216 -1.17317,-1.06485 -2.76248,-1.30191 -2.91248,-1.47797 -1.71647,-1.5041 -3.21426,-0.86323 -5.39536,-1.09947 -1.97766,-0.29956 -3.39156,0.46224 -4.74159,1.57397 -1.49866,2.26846 -2.18256,2.42391 -3.76705,6.06549 -0.83205,1.91225 -2.34263,4.21415 -3.04498,6.48931 -1.0601,3.43402 -0.15191,4.85068 -2.36109,6.10664 z"
       id="path4599"
       inkscape:connector-curvature="0"
       sodipodi:nodetypes="cccccccccscsscccssc" />
    <path
       style="fill:#cdffb4;fill-opacity:0.89595379;fill-rule:evenodd;stroke:none;stroke-width:1px;stroke-linecap:butt;stroke-linejoin:miter;stroke-opacity:1"
       d="m 388.91762,549.36799 c -0.0859,1.60253 7.83162,3.79858 12.29807,1.74084 2.95304,-0.0287 3.31672,-0.41532 3.95238,-2.20643 0.34612,-0.41336 0.60745,-1.90821 0.76123,-2.42605 1.07183,-1.39868 2.1218,-3.02723 3.94971,-3.8314 0.84049,-0.2449 1.66441,-3.36066 2.19921,-4.09184 0.43278,-0.8292 -3.31627,0.28714 -4.15023,0.26564 -1.08165,-0.0654 -2.95398,-0.61125 -4.02883,-0.52807 -1.49408,0.19773 -2.26801,0.15203 -3.34398,-0.90033 -1.71732,-0.86266 -1.95319,-3.93846 -3.94261,-4.48351 -1.07354,-0.28898 -2.2464,3.1033 -2.56956,3.92479 -0.49098,1.25165 -2.15433,4.05555 -2.48803,5.34632 -0.94862,3.72406 -2.74408,4.97009 -2.63736,7.19004 z"
       id="path4601"
       inkscape:connector-curvature="0"
       sodipodi:nodetypes="ccccccccccccc" />
    <path
       style="fill:#cdffb4;fill-opacity:0.89595379;fill-rule:evenodd;stroke:none;stroke-width:1px;stroke-linecap:butt;stroke-linejoin:miter;stroke-opacity:1"
       d="m 464.97498,444.85639 c 1.40985,0.82182 2.89503,0.81309 4.17507,1.88677 3.61047,3.02843 7.41162,9.21304 6.39059,12.78712 -0.28394,0.99389 -2.58366,1.54655 -3.723,1.79178 -3.92928,1.04097 -7.8637,4.31644 -10.49594,3.82752 -0.80138,-0.14885 -0.84101,-2.59697 -0.32798,-3.4351 1.99042,-3.25174 1.3885,-6.49133 -0.0236,-10.34755 0.73755,-1.37267 1.11603,-1.84892 1.57133,-3.77534 0.54486,-2.18951 -0.52316,-4.07218 2.43353,-2.7352 z"
       id="path4629"
       inkscape:connector-curvature="0"
       sodipodi:nodetypes="csscssccc" />
    <path
       style="fill:#cdffb4;fill-opacity:0.89595379;fill-rule:evenodd;stroke:none;stroke-width:1px;stroke-linecap:butt;stroke-linejoin:miter;stroke-opacity:1"
       d="m 474.26718,433.03866 c 3.26298,0.4678 7.90457,1.4604 10.76145,4.02645 2.22076,1.99468 2.84928,5.24841 4.21612,7.96391 0.9578,1.90287 2.77751,4.28362 2.20812,8.58713 -0.59749,4.51597 -3.74545,9.39417 -3.98519,11.02427 -0.28093,0.76454 -3.52237,6.18988 -6.88941,8.1656 -4.23471,2.48485 -5.25176,0.61269 -5.49674,-1.97753 -0.13753,-1.4542 4.96446,1.36058 9.14729,-4.82708 3.97982,-5.88734 2.48579,-14.48545 1.81888,-15.34323 -2.61161,-3.35904 -4.44448,-6.42814 -6.00882,-6.974 -3.19337,-6.22715 -20.98915,-9.96986 -6.81897,-10.65724 z"
       id="path4631"
       inkscape:connector-curvature="0"
       sodipodi:nodetypes="cssscssssccc" />
    <text
       xml:space="preserve"
       style="font-style:normal;font-weight:normal;font-size:49.96036911px;line-height:125%;font-family:Sans;letter-spacing:0px;word-spacing:0px;fill:#ff6d24;fill-opacity:1;stroke:none;stroke-width:1px;stroke-linecap:butt;stroke-linejoin:miter;stroke-opacity:1"
       x="343.5383"
       y="508.35703"
       id="text5555"
       sodipodi:linespacing="125%"
       transform="scale(1.0557258,0.94721566)"><tspan
         sodipodi:role="line"
         id="tspan5557"
         x="343.5383"
         y="508.35703"
         style="font-style:normal;font-variant:normal;font-weight:bold;font-stretch:normal;font-size:87.4306488px;font-family:'Times New Roman';-inkscape-font-specification:'Times New Roman, Bold';fill:#ff6d24;fill-opacity:1">R</tspan></text>
    <path
       style="fill:none;fill-rule:evenodd;stroke:#d90000;stroke-width:6.23896742;stroke-linecap:round;stroke-linejoin:bevel;stroke-miterlimit:4;stroke-dasharray:none;stroke-opacity:1"
       d="m 366.99589,553.3851 c 9.76758,0.6533 13.80591,-1.44356 18.67928,-10.30166 1.60562,-5.59587 5.68351,-9.64019 5.88596,-14.92112 5.7669,-5.2964 9.61569,1.8668 12.63549,5.32346 2.43197,1.16804 4.00997,0.15243 7.01727,0.051"
       id="path4171"
       inkscape:connector-curvature="0"
       sodipodi:nodetypes="ccccc" />
  </g>
</svg>
